<?xml version="1.0" standalone="no"?>
<!DOCTYPE svg PUBLIC "-//W3C//DTD SVG 20010904//EN"
 "http://www.w3.org/TR/2001/REC-SVG-20010904/DTD/svg10.dtd">
<svg version="1.0" xmlns="http://www.w3.org/2000/svg"
 width="620.000000pt" height="620.000000pt" viewBox="0 0 620.000000 620.000000"
 preserveAspectRatio="xMidYMid meet">
<metadata>
Created by potrace 1.11, written by Peter Selinger 2001-2013
</metadata>
<g transform="translate(0.000000,620.000000) scale(0.100000,-0.100000)"
fill="#000000" stroke="none">
<path d="M1960 3273 c0 -1172 4 -1760 10 -1785 6 -21 22 -51 37 -68 48 -58 59
-60 321 -60 l240 0 101 173 c55 94 159 270 229 391 70 120 132 219 138 219 5
0 101 -156 214 -346 l204 -347 384 0 384 0 -24 43 c-38 66 -701 1195 -741
1262 l-36 59 26 46 c15 25 78 133 141 240 64 107 198 336 299 509 102 173 229
390 284 482 54 92 99 170 99 173 0 3 -150 6 -332 6 -329 0 -334 0 -383 -24
-79 -37 -104 -69 -240 -301 -248 -423 -607 -1035 -672 -1145 l-73 -125 0 1173
0 1172 -305 0 -305 0 0 -1747z"/>
<path d="M4025 2800 c-11 -4 -30 -18 -41 -31 -28 -30 -176 -279 -172 -289 9
-21 184 -310 188 -310 3 0 28 39 57 88 68 116 268 456 300 510 l25 42 -169 -1
c-92 0 -177 -4 -188 -9z"/>
</g>
</svg>
